<svg xmlns="http://www.w3.org/2000/svg" viewBox="0 0 500 500" width="500" height="500"><defs></defs><g>
<g>
	<g>
		<path d="M86.64646723536623,380.8880761867245 C55.531508613530946,201.97706411117233 24.41654999169566,23.06605203562014 24.41654999169566,23.06605203562014 C24.41654999169566,23.06605203562014 250.44347100887765,147.52588652296077 250.44347100887765,147.52588652296077 C250.44347100887765,147.52588652296077 475.5834500083073,23.06605203562014 475.5834500083073,23.06605203562014 C475.5834500083073,23.06605203562014 413.3535327646367,380.8880761867245 413.3535327646367,380.8880761867245 C396.80483862732234,520.6550046806738 110.25398393117746,522.418384284118 86.64646723536623,380.8880761867245 C86.64646723536623,380.8880761867245 86.64646723536623,380.8880761867245 86.64646723536623,380.8880761867245 Z" fill="none" stroke="#ff0000" stroke-width="20"/>
	</g>
	<g>
		<path d="M84.70178232150101,280.73680312269255 C84.70178232150101,280.73680312269255 215.96801400736862,280.73680312269255 215.96801400736862,280.73680312269255 C215.96801400736862,280.73680312269255 224.7190961197598,263.23463889791026 224.7190961197598,263.23463889791026 C224.7190961197598,263.23463889791026 102.20394654628336,140.71948932443433 102.20394654628336,140.71948932443433 C102.20394654628336,140.71948932443433 89.0773233776966,153.84611249302102 89.0773233776966,153.84611249302102 C89.0773233776966,153.84611249302102 189.7147676701951,258.8590978417147 189.7147676701951,258.8590978417147 C189.7147676701951,258.8590978417147 84.70178232150101,263.23463889791026 84.70178232150101,263.23463889791026 C84.70178232150101,263.23463889791026 84.70178232150101,280.73680312269255 84.70178232150101,280.73680312269255 C84.70178232150101,280.73680312269255 84.70178232150101,280.73680312269255 84.70178232150101,280.73680312269255 Z" fill="#ff0000"/>
	</g>
	<g>
		<path d="M415.298217678501,280.73680312269255 C415.298217678501,280.73680312269255 284.0319859926334,280.73680312269255 284.0319859926334,280.73680312269255 C284.0319859926334,280.73680312269255 275.2809038802422,263.23463889791026 275.2809038802422,263.23463889791026 C275.2809038802422,263.23463889791026 397.7960534537186,140.71948932443433 397.7960534537186,140.71948932443433 C397.7960534537186,140.71948932443433 410.9226766223054,153.84611249302102 410.9226766223054,153.84611249302102 C410.9226766223054,153.84611249302102 310.2852323298069,258.8590978417147 310.2852323298069,258.8590978417147 C310.2852323298069,258.8590978417147 415.298217678501,263.23463889791026 415.298217678501,263.23463889791026 C415.298217678501,263.23463889791026 415.298217678501,280.73680312269255 415.298217678501,280.73680312269255 C415.298217678501,280.73680312269255 415.298217678501,280.73680312269255 415.298217678501,280.73680312269255 Z" fill="#ff0000"/>
	</g>
	<g>
		<g>
			<path d="M118.58365730937291,310.8794192875954 C118.58365730937291,310.8794192875954 162.2439233844713,373.10933653126574 162.2439233844713,373.10933653126574 C162.2439233844713,373.10933653126574 206.7752704269236,309.6378488304266 206.7752704269236,309.6378488304266 C206.7752704269236,309.6378488304266 249.564455534668,373.10933653126574 249.564455534668,373.10933653126574 C249.564455534668,373.10933653126574 294.0957817582831,309.6378488304266 294.0957817582831,309.6378488304266 C294.0957817582831,309.6378488304266 336.88498768486477,373.10933653126574 336.88498768486477,373.10933653126574 C336.88498768486477,373.10933653126574 381.4163139084798,309.6378488304266 381.4163139084798,309.6378488304266" transform="matrix(1,0,0,1,0,0)" fill="none" stroke="#ff0000" stroke-width="20"/>
		</g>
		<g>
			<path d="M148.87638447903677,454.786102913583 C148.87638447903677,454.786102913583 195.54883168476997,408.11366498083026 195.54883168476997,408.11366498083026 C195.54883168476997,408.11366498083026 250.00000000000145,480.0670067938241 250.00000000000145,480.0670067938241 C250.00000000000145,480.0670067938241 304.4511924249816,408.11366498083026 304.4511924249816,408.11366498083026 C304.4511924249816,408.11366498083026 351.12361552096615,454.786102913583 351.12361552096615,454.786102913583" transform="matrix(1,0,0,1,0,0)" fill="none" stroke="#ff0000" stroke-width="20"/>
		</g>
		<g>
			<path d="M117.76142585720152,301.8591251198182 C117.76142585720152,301.8591251198182 148.8763844790368,447.9797242610171 148.8763844790368,447.9797242610171 C220.700601896238,498.42844706069604 288.1163406312917,498.42844706069604 351.12361552096615,447.9797242610171 C351.12361552096615,447.9797242610171 382.23857414280144,301.8591251198182 382.23857414280144,301.8591251198182 C382.23857414280144,301.8591251198182 117.76142585720152,301.8591251198182 117.76142585720152,301.8591251198182 C117.76142585720152,301.8591251198182 117.76142585720152,301.8591251198182 117.76142585720152,301.8591251198182 Z" transform="matrix(1,0,0,1,0,0)" fill="none" stroke="#ff0000" stroke-width="20"/>
		</g>
	</g>
</g></g></svg>